HIERARCHY
ROOT Hips
{
	OFFSET 0.000000 0.000000 0.000000 
	CHANNELS 6 Xposition Yposition Zposition Zrotation Yrotation Xrotation
	JOINT LeftUpLeg
	{
		OFFSET 1.363060 -1.794630 0.839290 
		CHANNELS 3 Zrotation Yrotation Xrotation
		JOINT LeftLeg
		{
			OFFSET 2.448110 -6.726130 0.000000 
			CHANNELS 3 Zrotation Yrotation Xrotation
			JOINT LeftFoot
			{
				OFFSET 2.562200 -7.039590 0.000000 
				CHANNELS 3 Zrotation Yrotation Xrotation
				JOINT LeftToeBase
				{
					OFFSET 0.157640 -0.433110 2.322550 
					CHANNELS 3 Zrotation Yrotation Xrotation
					End Site
					{
						OFFSET 0.000000 0.000000 0.000000 
					}
				}
			}
		}
	}
	JOINT RightUpLeg
	{
		OFFSET -1.305520 -1.794630 0.839290 
		CHANNELS 3 Zrotation Yrotation Xrotation
		JOINT RightLeg
		{
			OFFSET -2.542530 -6.985550 0.000000 
			CHANNELS 3 Zrotation Yrotation Xrotation
			JOINT RightFoot
			{
				OFFSET -2.568260 -7.056230 0.000000 
				CHANNELS 3 Zrotation Yrotation Xrotation
				JOINT RightToeBase
				{
					OFFSET -0.164730 -0.452590 2.363150 
					CHANNELS 3 Zrotation Yrotation Xrotation
					End Site
					{
						OFFSET 0.000000 0.000000 0.000000 
					}
				}
			}
		}
	}
	JOINT Spine
	{
		OFFSET 0.028270 2.035590 -0.193380 
		CHANNELS 3 Zrotation Yrotation Xrotation
		JOINT Spine1
		{
			OFFSET 0.056720 2.048850 -0.042750 
			CHANNELS 3 Zrotation Yrotation Xrotation
			JOINT Neck1
			{
				OFFSET -0.054170 1.746240 0.172020 
				CHANNELS 3 Zrotation Yrotation Xrotation
				JOINT Head
				{
					OFFSET 0.104070 1.761360 -0.123970 
					CHANNELS 3 Zrotation Yrotation Xrotation
					End Site
					{
						OFFSET 0.000000 0.000000 0.000000 
					}
				}
			}
			JOINT LeftArm
			{
				OFFSET 3.362410 1.200890 -0.311210 
				CHANNELS 3 Zrotation Yrotation Xrotation
				JOINT LeftForeArm
				{
					OFFSET 4.983000 -0.000000 -0.000000 
					CHANNELS 3 Zrotation Yrotation Xrotation
					JOINT LeftHand
					{
						OFFSET 3.483560 -0.000000 -0.000000 
						CHANNELS 3 Zrotation Yrotation Xrotation
						JOINT LeftHandIndex1
						{
							OFFSET 0.715260 -0.000000 -0.000000 
							CHANNELS 3 Zrotation Yrotation Xrotation
							End Site
							{
								OFFSET 0.000000 0.000000 0.000000 
							}
						}
					}
				}
			}
			JOINT RightArm
			{
				OFFSET -3.136600 1.374050 -0.404650 
				CHANNELS 3 Zrotation Yrotation Xrotation
				JOINT RightForeArm
				{
					OFFSET -5.241900 -0.000000 -0.000000 
					CHANNELS 3 Zrotation Yrotation Xrotation
					JOINT RightHand
					{
						OFFSET -3.444170 -0.000000 -0.000000 
						CHANNELS 3 Zrotation Yrotation Xrotation
						JOINT RightHandIndex1
						{
							OFFSET -0.622530 -0.000000 -0.000000 
							CHANNELS 3 Zrotation Yrotation Xrotation
							End Site
							{
								OFFSET 0.000000 0.000000 0.000000 
							}
						}
					}
				}
			}
		}
	}
}
MOTION
Frames: 18
Frame Time: 0.041667
14.593914 18.216235 19.391150 179.345336 -4.621993 -153.534036 -25.572096 -33.503579 -34.660427 2.740897 9.262818 20.564023 0.319172 -6.778765 -31.126261 4.956600 -13.334800 -40.635100 46.023407 20.052559 -2.895153 -3.247333 -3.958934 12.225337 -6.222428 -3.463101 -43.837929 -1.949700 8.760500 -25.049100 0.875075 0.163259 -4.364034 -0.107646 -1.315836 17.751384 15.811004 -5.582783 38.925240 2.759600 -0.633600 7.502500 -104.805212 -0.337931 13.880053 16.524660 -16.597869 -2.258419 -0.313746 0.439475 6.186563 -7.125000 0.000000 0.000000 98.501195 -3.097396 10.634154 -26.710046 36.944782 -8.336470 0.117965 -0.257753 -6.189314 7.125000 0.000000 0.000000 
14.521573 18.214907 19.370817 179.138994 -3.967621 -152.307793 -25.580170 -33.501695 -35.899532 2.696872 9.426966 20.834067 0.392346 -6.647886 -31.299929 4.882500 -13.250300 -40.312700 44.808353 21.704826 -5.343210 -3.356196 -4.643353 13.496642 -6.017214 -3.401708 -43.943612 -2.050700 8.970800 -25.704100 0.637429 0.322127 -4.229051 -0.073534 -1.293370 17.261201 15.362970 -5.205591 40.044057 2.716700 -0.420900 7.800400 -104.595962 -0.249784 14.296094 16.804715 -17.016711 -2.363695 -0.314515 0.424509 5.862987 -7.125000 0.000000 0.000000 98.572615 -3.379899 10.751707 -26.927200 37.172078 -8.464591 0.116426 -0.252690 -6.362169 7.125000 0.000000 0.000000 
14.463947 18.219198 19.326371 179.055246 -3.927702 -152.413903 -26.190442 -33.329537 -35.521088 2.709473 9.417741 20.884406 0.251327 -7.021867 -31.300227 4.816900 -13.174600 -40.025800 44.548653 21.863410 -5.383744 -3.417429 -4.861819 14.170992 -6.052650 -3.646307 -44.032041 -2.014100 8.895400 -25.468700 0.667531 0.173266 -4.032507 0.052958 -1.377201 17.380334 15.575194 -5.632343 39.479029 2.710300 -0.641400 7.696400 -104.514589 -0.495977 14.349773 17.073227 -17.466700 -2.465544 -0.317721 0.410028 5.507096 -7.125000 0.000000 0.000000 98.436232 -3.309345 10.909521 -26.813726 37.055698 -8.397149 0.122789 -0.265829 -6.364076 7.125000 0.000000 0.000000 
14.401109 18.221753 19.288770 179.068513 -3.766848 -152.608142 -26.762454 -33.156946 -35.002423 2.720589 9.387828 20.875043 0.197832 -7.200969 -31.351699 4.736900 -13.081300 -39.673400 44.367875 21.943888 -5.330841 -3.480491 -5.054569 14.830361 -6.054933 -3.618687 -44.105559 -2.090000 9.051200 -25.955500 0.587143 0.257270 -3.857837 0.049378 -1.326793 17.330425 15.698147 -6.166132 39.692961 2.686300 -0.885600 7.790300 -104.331587 -0.694237 14.954450 17.348597 -17.900707 -2.574979 -0.335336 0.378601 5.115707 -7.125000 0.000000 0.000000 98.456855 -3.360908 11.066718 -26.923144 37.180169 -8.463841 0.118266 -0.260114 -7.156307 7.125000 0.000000 0.000000 
14.328258 18.226861 19.248513 179.158490 -3.540094 -153.080610 -27.516536 -33.045328 -33.922326 2.725396 9.272901 20.658552 0.280607 -7.109155 -31.533642 4.668900 -13.001000 -39.372100 44.299516 21.792402 -4.942166 -3.553455 -5.196492 15.484225 -6.060708 -3.460559 -44.145524 -2.203900 9.278500 -26.670500 0.424128 0.475002 -4.174114 0.034085 -1.215338 17.681784 15.699117 -6.222177 40.181843 2.698500 -0.894200 7.917600 -104.173806 -0.827329 15.687066 17.656586 -18.369558 -2.702773 -0.354747 0.348426 4.817587 -7.125000 0.000000 0.000000 98.512216 -3.506487 10.814220 -26.898806 37.152071 -8.447798 0.122639 -0.265003 -6.996545 7.125000 0.000000 0.000000 
14.244985 18.243925 19.206110 179.469512 -3.585942 -154.318003 -28.379240 -33.031962 -32.036049 2.749552 9.104109 20.407419 0.427741 -6.894380 -31.719961 4.666600 -12.998300 -39.362000 44.688604 20.828095 -3.629709 -3.632555 -5.213032 16.122152 -6.135467 -3.254729 -44.172830 -2.237500 9.344200 -26.878100 0.476446 0.592053 -3.607785 -0.323461 -1.020281 17.554279 16.234587 -6.291257 38.884752 2.762200 -0.932200 7.547700 -104.031176 -1.219185 15.987991 17.935603 -18.845926 -2.820859 -0.362529 0.331790 4.648873 -7.125000 0.000000 0.000000 98.546870 -3.602614 10.806106 -26.995919 37.254518 -8.507624 0.125073 -0.267245 -6.942447 7.125000 0.000000 0.000000 
14.177140 18.255368 19.181179 178.986159 -3.438125 -154.441414 -29.575832 -32.916810 -31.518443 2.740963 9.053946 20.335593 0.284513 -7.255356 -31.549873 4.600000 -12.918700 -39.064900 43.963170 20.618655 -3.708788 -3.759464 -5.400787 16.806250 -6.126075 -3.281647 -44.141776 -2.217300 9.304700 -26.753300 0.273078 0.601357 -3.601031 -0.188628 -1.023709 17.353288 17.086266 -6.547773 38.518744 2.985200 -1.019900 7.424600 -103.949188 -1.246709 16.262064 18.309576 -19.444413 -2.982784 -0.370739 0.307226 4.249401 -7.125000 0.000000 0.000000 98.482726 -3.976294 11.071899 -27.186139 37.422440 -8.616269 0.122886 -0.259063 -7.278110 7.125000 0.000000 0.000000 
14.063828 18.218790 19.216736 179.065999 -2.656064 -151.459064 -28.716459 -32.616335 -35.141909 2.690994 9.381117 20.838642 -0.138862 -8.070340 -31.248135 4.457000 -12.744900 -38.421000 42.042192 22.646787 -9.102860 -3.791398 -6.504671 18.512329 -5.374586 -1.653659 -43.866481 -2.214900 9.300100 -26.738800 -0.080229 0.820934 -4.750351 -0.718920 -0.929702 17.576078 17.301354 -6.934963 38.579581 2.989700 -1.194100 7.433800 -103.874236 -1.283121 16.579882 18.718680 -20.098048 -3.167550 -0.382585 0.291949 3.783741 -7.125000 0.000000 0.000000 98.396600 -4.183116 11.373580 -27.287310 37.494378 -8.667319 0.121594 -0.253505 -7.761894 7.125000 0.000000 0.000000 
14.004055 18.232583 19.180771 178.986706 -2.676066 -152.039511 -29.722559 -32.304469 -34.073661 2.709737 9.240408 20.607864 -0.295970 -8.478842 -31.154593 4.259500 -12.498000 -37.517100 42.039196 22.112680 -8.310833 -3.868841 -6.471017 18.804953 -5.380603 -1.486546 -43.698984 -2.052800 8.975300 -25.718100 -0.069405 0.735932 -4.501750 -0.639603 -0.951706 17.434136 16.894589 -6.733482 38.615676 2.892500 -1.134500 7.418500 -103.786708 -1.352997 16.874143 19.129764 -20.725656 -3.352579 -0.402670 0.279512 3.392795 -7.125000 0.000000 0.000000 98.304262 -4.290280 11.711701 -27.306083 37.506623 -8.674437 0.119866 -0.251457 -8.522352 7.125000 0.000000 0.000000 
13.938561 18.262521 19.151140 178.603340 -3.028380 -152.982118 -30.794772 -32.945295 -32.718505 2.682621 9.179084 20.536571 -0.138818 -8.219122 -31.241805 4.176900 -12.392200 -37.133900 41.744425 20.896555 -7.046446 -4.016928 -6.370564 19.137798 -5.505990 -1.643600 -43.617817 -2.166500 9.204600 -26.437400 -0.103919 0.475334 -4.114259 -0.612134 -1.033542 17.061116 16.838857 -6.879180 39.000953 2.889200 -1.198100 7.535400 -103.702715 -1.447101 17.133053 19.578433 -21.416994 -3.559761 -0.420251 0.254909 2.980201 -7.125000 0.000000 0.000000 98.227142 -4.232048 11.863206 -27.108003 37.319622 -8.559058 0.116446 -0.252373 -8.420100 7.125000 0.000000 0.000000 
13.874803 18.273862 19.117524 178.622833 -2.828533 -153.292100 -31.483840 -32.710649 -31.908779 2.685694 9.062179 20.308513 -0.114784 -8.239959 -31.314297 4.143400 -12.348800 -36.977500 41.539485 20.762123 -7.188546 -4.097210 -6.652634 20.044074 -5.472843 -1.852021 -43.378460 -2.413800 9.679500 -27.944800 -0.089348 0.506404 -3.898325 -0.625891 -0.991228 17.030734 17.139537 -7.087133 38.734311 2.947200 -1.290500 7.480900 -103.687931 -1.666561 17.120495 19.990208 -22.068243 -3.755883 -0.421425 0.240765 2.800130 -7.125000 0.000000 0.000000 98.175699 -4.086852 11.517030 -26.643429 36.849711 -8.286411 0.127297 -0.273998 -6.874668 7.125000 0.000000 0.000000 
13.818913 18.264053 19.072260 179.071210 -1.958407 -152.761615 -31.727702 -31.413952 -31.821692 2.723943 8.843932 19.770267 -0.275789 -8.606760 -31.235644 3.985300 -12.140800 -36.231700 41.362109 21.977992 -8.898962 -4.089815 -7.313243 21.410189 -5.261132 -2.044014 -42.966047 -2.713400 10.216000 -29.679000 0.042073 0.866241 -4.079379 -0.451679 -0.844371 17.431225 17.278367 -7.055668 37.582160 2.934500 -1.342100 7.122400 -103.854528 -1.699699 16.939211 20.414414 -22.722918 -3.963674 -0.427949 0.227688 2.750520 -7.125000 0.000000 0.000000 98.059943 -4.223496 11.557653 -26.485249 36.655626 -8.190445 0.130872 -0.277014 -6.713164 7.125000 0.000000 0.000000 
13.764045 18.273658 19.049067 179.339916 -1.741208 -152.482798 -31.702798 -31.127912 -31.934537 2.729304 8.793515 19.624662 -0.342472 -8.763296 -31.231748 3.792100 -11.878400 -35.303200 41.110163 22.419291 -10.003803 -4.123173 -7.799776 22.530151 -5.138523 -2.285621 -42.602847 -2.854900 10.456300 -30.467500 0.200010 0.830957 -4.057403 -0.399087 -0.869626 17.360446 16.415699 -6.732975 38.949188 2.802400 -1.184300 7.516200 -103.947811 -1.709463 16.865942 20.919325 -23.463430 -4.209939 -0.445816 0.201248 2.531087 -7.125000 0.000000 0.000000 97.970231 -4.161638 11.545414 -26.355452 36.535072 -8.116505 0.125539 -0.274303 -6.555167 7.125000 0.000000 0.000000 
13.705805 18.281116 19.034047 179.503926 -1.234591 -151.674659 -31.526940 -31.023795 -32.585595 2.702343 8.795632 19.491210 -0.263934 -8.593205 -31.363012 3.577500 -11.575900 -34.247900 40.193873 23.601654 -12.154611 -4.146381 -8.486396 23.925056 -4.886099 -2.039095 -42.438371 -2.659800 10.122900 -29.375600 0.085796 1.033907 -4.282691 -0.411559 -0.794327 17.488908 16.083613 -6.593566 39.224404 2.714100 -1.129900 7.568400 -103.822865 -1.737735 17.109519 21.405171 -24.158024 -4.453505 -0.462016 0.175832 2.140708 -7.125000 0.000000 0.000000 98.094989 -4.273215 11.349573 -26.285750 36.469661 -8.080991 0.126696 -0.276466 -6.359431 7.125000 0.000000 0.000000 
13.652981 18.294604 19.002475 179.604118 -1.339323 -152.058161 -32.009789 -30.749969 -31.851751 2.724039 8.657304 19.231926 -0.388130 -8.873836 -31.180957 3.440400 -11.375900 -33.558500 40.317735 23.193650 -11.927945 -4.215999 -8.642010 24.534254 -4.903562 -2.436527 -42.038883 -2.572200 9.968000 -28.873000 0.212457 0.954138 -4.147822 -0.380626 -0.800186 17.376427 16.310705 -7.097094 39.475203 2.717200 -1.363000 7.620500 -103.803137 -1.671778 17.328120 21.893188 -24.863884 -4.712959 -0.474919 0.153807 1.616368 -7.125000 0.000000 0.000000 98.047294 -4.394870 11.110688 -26.044599 36.220518 -7.945892 0.128578 -0.284212 -6.021080 7.125000 0.000000 0.000000 
13.598623 18.307069 18.970392 179.669457 -1.291016 -152.350047 -32.545740 -30.468902 -31.167011 2.737578 8.524053 18.976728 -0.473354 -9.100989 -31.101441 3.379300 -11.285100 -33.247500 40.334874 22.789112 -11.898364 -4.282821 -8.813574 25.130018 -4.873103 -2.904168 -41.322570 -2.745900 10.271900 -29.861700 0.304393 0.877778 -3.945882 -0.394696 -0.806216 17.427588 16.637416 -7.358685 39.106136 2.769200 -1.485800 7.536400 -103.814339 -1.714788 17.358497 22.404905 -25.610921 -4.991934 -0.477250 0.135502 1.129066 -7.125000 0.000000 0.000000 97.996724 -4.213661 10.915363 -25.730696 35.903247 -7.772962 0.124975 -0.286430 -5.497425 7.125000 0.000000 0.000000 
13.541814 18.311054 18.941169 179.743891 -1.106116 -152.104417 -32.725195 -30.425469 -31.071978 2.722929 8.458511 18.782844 -0.439509 -9.072824 -31.209814 3.145600 -10.927000 -32.034200 39.876597 23.292728 -12.863817 -4.325574 -9.213791 26.053989 -4.750514 -2.994025 -40.930306 -2.591600 10.002700 -28.985300 0.215083 0.836827 -3.636458 -0.584346 -0.831701 18.185640 16.333668 -6.840645 38.785215 2.712300 -1.249400 7.479200 -103.664073 -2.125246 17.296526 22.881564 -26.292898 -5.242232 -0.476171 0.113123 0.710158 -7.125000 0.000000 0.000000 98.188379 -3.679178 10.710495 -25.508896 35.709070 -7.659903 0.121793 -0.287229 -4.965967 7.125000 0.000000 0.000000 
13.487252 18.317389 18.910823 179.777589 -0.865731 -151.921369 -33.112475 -30.159683 -30.803022 2.720995 8.343780 18.485132 -0.466400 -9.145119 -31.148605 2.879300 -10.497000 -30.601600 39.274003 23.920080 -13.795884 -4.399561 -9.674474 27.239423 -4.619659 -2.703137 -40.946823 -2.088500 9.048000 -25.945700 0.496393 0.762124 -3.811710 -0.203474 -0.903861 18.037863 15.898504 -6.663282 39.002054 2.643200 -1.219400 7.491900 -103.937427 -1.905359 17.383700 23.331661 -26.894313 -5.498104 -0.493029 0.075458 0.241293 -7.125000 0.000000 0.000000 97.917864 -3.994921 10.507903 -25.419162 35.577434 -7.597680 0.124232 -0.289132 -4.810542 7.125000 0.000000 0.000000 
